<?xml version="1.0" encoding="utf-8"?>
<!-- Generator: Adobe Illustrator 27.2.0, SVG Export Plug-In . SVG Version: 6.00 Build 0)  -->
<svg version="1.1" id="_Слой_1" xmlns="http://www.w3.org/2000/svg" xmlns:xlink="http://www.w3.org/1999/xlink" x="0px"
	 y="0px" viewBox="0 0 1080 1080" style="enable-background:new 0 0 1080 1080;" xml:space="preserve">
<style type="text/css">
	.st0{fill:#E6E6E6;}
	.st1{fill-rule:evenodd;clip-rule:evenodd;fill:#222222;}
</style>
<path class="st0" d="M202,0h676c111.6,0,202,90.4,202,202v676c0,111.6-90.4,202-202,202H202C90.4,1080,0,989.6,0,878V202
	C0,90.4,90.4,0,202,0z"/>
<path class="st1" d="M551,111.2c-28.5,2.4-52.2,11.9-75.3,30.3c-7.6,6-11.7,7.6-19.9,7.7c-7.2,0.1-14.3,2.4-23.1,7.8
	c-14.3,8.7-30.3,24.9-41.4,41.9c-5.9,9-6.1,9.2-13.1,11.9c-9.5,3.7-21.2,15-24.4,23.5c-7.6,20.4-8.8,52.2-2.6,66
	c2.5,5.5,9.9,13.8,16.4,18.1l2.5,1.7l-4.8,0.1c-7.4,0.1-11.4-2.1-13.8-7.4c-1.1-2.5-2.4-4.8-3-5.1c-1.5-0.9-5.4-9.2-7.9-16.7
	c-1.2-3.7-2.6-7-3-7.2c-1.2-0.7-3.8,2.5-6.1,7.9c-1.9,4.2-2.1,6.2-1.7,14.6c0.4,7.3,1,10.8,2.7,14.3c2.9,5.9,10.6,12.9,18.4,16.6
	c6.4,3.1,19,6.1,25.2,6.1c3.5,0,3.6,0.1,3,2.8c-0.4,1.5-0.9,5.9-1.2,9.8c-0.7,8.7,0.8,12.4,7.1,17.7c3.9,3.3,4.3,4,3.6,6.4
	c-1.5,5-7.7,20.6-12.8,31.8c-5.8,12.9-6.7,16.4-5.2,21.8c2.1,7.9,8.2,10.9,26.4,12.9c5.5,0.6,10.6,1.6,11.4,2.2
	c1.1,0.9,1.2,3,0.8,9.3c-0.6,7.7-0.5,8.4,1.9,11.1c1.4,1.6,5,4,8,5.2l5.5,2.2l-0.2,9.8c-0.3,11.4,0.3,12.5,9.3,17
	c3.1,1.5,6.2,3.6,7,4.5c1,1.2,1.6,5.6,2,15.3c0.5,12.1,0.8,14.2,3.2,18.6c2.9,5.7,9.7,12.4,15.4,15.3c5.5,2.8,14.5,4.4,20.1,3.7
	c10.4-1.4,28.8-7.2,43.1-13.6c8.4-3.8,12.8-4.4,17.4-2.5c4.2,1.8,4.6,3.5,1.6,6.2c-4,3.6-13.5,18.9-15.3,24.7
	c-1.3,4.1-1.7,8-1.5,13.5c0.5,10.5,3.2,15.7,21.3,40.9c8,11.1,14.5,20.6,14.5,21.1c0,2-15.5,21.4-26.4,33
	c-15.3,16.3-23.3,25.8-27.8,33.2c-7.8,12.9-8.7,29.3-3.3,60l1.5,8.6l-6.5,12.7c-14.9,29-18.3,55-10.4,79.6
	c5.4,16.8,12.2,26.3,36.9,51.6c11.3,11.6,23.7,25.2,27.5,30.3l6.8,9.2l144.6-0.3l144.6-0.3l10.8-2.3
	c64.8-13.7,106.1-60.1,112.7-126.7c0.8-7.7,1-62.6,0.8-181l-0.3-170l-6-2.4c-16.2-6.4-40.6-10.9-83.5-15.1
	c-17.3-1.7-33-3.4-34.9-3.8c-3.3-0.7-3.5-0.9-5.7-9.2c-1.2-4.7-3.6-12.2-5.3-16.6l-3-8.1l7.3-0.7c20.5-1.9,42.3-12.9,54.2-27.4
	c5.1-6.2,10.7-17.3,12.2-23.9c1.1-4.9,0.4-5.3-3.9-2.2c-8.6,6.1-25.1,11-37.1,10.9c-11.2,0-19.3-2.4-35.3-10.4
	c-8.2-4.1-16.1-8.6-17.5-10.1l-2.5-2.7l2.5,0.6c6.3,1.4,19,2.6,27.6,2.6c18.7,0,38-6.1,56-17.6c7.7-4.9,18.6-15.7,21.7-21.4
	c1.5-2.8,2.6-5.1,2.4-5c-0.2,0-2.5,0.7-5.2,1.5c-8.7,2.7-19.2,1.3-31.1-4.1l-6-2.7l11.5-2.8c12.7-3.1,19.7-6.2,31-13.8
	c20.6-13.7,33-28.6,36.6-43.8c0.7-2.9,1.1-5.3,0.9-5.3c-0.2,0-3.5,2.2-7.5,4.9c-8.8,6-17.7,9.7-27.2,11.2
	c-10.7,1.7-21.6-0.1-43.8-7.1c-10.3-3.2-21.6-6.4-25-7.1c-8.6-1.7-23-0.7-31.1,2.1c-12.6,4.4-28.2,13.5-40,23.4
	c-13.9,11.6-31.6,16.7-52,15.1c-10-0.8-9.6-1.1,9.2-5.4c20.8-4.8,33.1-11.6,49.3-27c7.4-7,9.5-8.4,18.7-12.4
	c10.2-4.4,21.4-16.9,28.2-31.7c1.9-4,3.7-9,4.1-11.1l0.7-3.8l-10.4,5.4c-16.2,8.5-25,11-38.9,11c-10.2,0-12.6-0.4-21-3.2
	c-16-5.3-30.8-15.3-51.8-35.3c-6.8-6.5-7.1-6.9-4.4-6.9c2.8,0,11.3-4.7,12.7-7c0.4-0.7,0.1-1.6-0.6-2.1c-2.9-1.8-23.9-10.4-35-14.3
	l-11.6-4.1l4.8-5.2c5.8-6.3,10.6-15.9,11.5-23c0.4-2.9,0.3-5.2-0.1-5.2c-0.4,0-3.2,1.5-6.3,3.4c-15.6,9.4-34.7,12.7-54.1,9.2
	c-4.1-0.7-15.4-3.9-25-7.1C586.5,112.6,569,109.7,551,111.2 M251.3,123.9c-12.5,10-47,45.1-58.5,59.4c-16,20-27.7,38.6-33.4,53
	c-5.7,14.4-9.6,37.8-8.4,50.1l0.7,6.7l5.6-4.9c10.5-9,31.9-24.6,47.1-34.1c20.8-13.1,38-24.5,47.1-31.2l7.7-5.7l-2.4-5.8
	c-6-14.7-5.9-29.9,0.3-54.8c5.6-22.3,6.8-30.6,5.3-35.5c-0.7-2.2-1.6-4-2-4C260.1,117.2,255.9,120.2,251.3,123.9 M393,133
	c-27.2,18.2-45.9,32.8-79.1,61.3c-25.6,22-39.7,37.6-55,60.4c-11.9,17.7-15.8,28.4-14,38c1.1,6,8.7,12.8,17,15.4
	c17.6,5.4,33.3,0.3,50.1-16.4c10.6-10.6,14.5-17.4,20.6-35.7c6.5-19.7,13.1-31.1,24.5-41.9c6.5-6.2,11.9-9.3,17.7-10.4
	c3.1-0.6,4-1.3,4.9-3.8c0.6-1.7,5.1-11.2,10-21.1c10.4-20.9,14.7-31.5,18.2-45c2.7-10.6,2.9-11.5,1.8-11.5
	C409.3,122.3,401.8,127.1,393,133 M525.5,214.4c-9.7,7.1-20.2,12.7-25.8,13.9c-5.2,1.1-5.7,1-11.5-2c-3.3-1.7-6.6-2.9-7.2-2.7
	c-0.7,0.3-2.9,3.8-5,7.8c-2.1,4-5.9,9.5-8.3,12.1c-5.3,5.7-16.5,12.8-23.8,15.2c-4.9,1.6-5.2,1.9-5.9,5.9c-1.1,6.9-6.2,21.5-10,28.6
	c-6.4,12.2-16.2,21.2-29.5,27.2l-4.8,2.2L393,335c-1,16.8-0.3,22.5,3.2,27.4c4.4,6.1,7.3,11.2,7.3,13c0,0.9-2.9,7.6-6.4,15
	c-8.9,18.7-13.6,30.2-13.6,33.7c0,1.6,1,4.2,2.1,5.7l2.1,2.7l17.1-0.3c9.4-0.2,17.6,0,18.3,0.4c2.1,1.4,2.4,6.1,0.9,14.7
	c-0.8,4.7-1.5,9.2-1.5,10.1c0,1.4,2.4,1.7,17.2,2.3c18.9,0.7,27.4,1.9,29.5,3.9c2.2,2.2,0,3.3-14.3,7.2c-18,4.9-17,4.3-17.8,11.4
	c-0.9,9-0.6,9.5,6.7,8.7c17.4-1.9,16.3-2,17.6,0.4c1.4,2.6,0.8,5.9-2.7,14.4c-2.3,5.6-2.5,7.2-2.1,16.7c0.8,19,4.7,23.6,19.8,23.4
	c7.1-0.1,9.7-0.6,15.7-3.1c26.5-11.2,106.6-76.5,122.3-99.7c4.4-6.6,4.7-10.2,1.7-29.1c-4.4-28.4-5.2-36.4-3.6-38
	c1.1-1.1,2.2-1.2,5.3-0.4c14.6,4,29.3-11.1,41-42.4c3.4-9,5.8-23,5-29.2c-1.4-11.9-8.2-25.7-15.5-31.9c-13.2-11.2-32-10.3-42.9,2.2
	c-5,5.6-12.4,18.6-17.6,30.8c-5.1,11.9-12.1,19.5-17.9,19.5c-3.5,0-4.6-0.7-10-6.2c-4.3-4.4-7.6-9.3-11.3-16.4
	c-6.8-13.2-9-15.8-14.9-17.3c-6.4-1.6-11.8-4.8-13.2-7.7c-1.3-2.8-0.7-4.2,6.5-15.8c2.4-3.9,4.4-7.3,4.4-7.6c0-0.3-3.4,1.1-7.5,3.2
	c-9.3,4.7-14.6,5.5-25.8,4c-13.4-1.8-19.8-5.1-18.2-9.4c0.3-0.9,4.4-2.2,10.5-3.5c11.5-2.4,19.2-5.7,26.5-11.2
	c7.8-5.9,15.2-18.3,14.3-23.9C531,210.6,530.4,210.9,525.5,214.4 M603,235.6c-8.1,2-15.2,6.5-22.6,14.4c-3.8,4.1-6.9,7.8-6.9,8.3
	c0,0.5,2.1,0.9,4.6,0.9c3.7,0,6.3-1,13.2-4.9c12.7-7.2,18.3-8.8,36.7-10.1c8.8-0.6,16.1-1.3,16.2-1.5c0.7-0.6-18.8-6.4-25-7.4
	C611.6,234,609.4,234,603,235.6 M372,252c-2.7,4.2-3,5.6-3,12.6c0,7.6,0.1,7.9,3.3,10.8c4.7,4.2,10.3,4.1,14.7-0.4
	c10.1-10.1,5.5-27.7-7.4-27.7C375.2,247.2,374.9,247.4,372,252 M624.8,281.8c-5.4,2.6-10.2,10.3-14.2,22.3
	c-3.1,9.3-2.8,10.8,2.9,17.6c6.2,7.4,6.4,10.2,1.5,19.1c-4,7.1-4.2,8.5-1.8,10.7c3,2.7,6.6,3.1,8.5,1c4-4.4,17.7-26.9,17.7-29
	c0-1.3-0.7-3.9-1.5-5.8c-1.2-2.9-2.7-4.1-9-6.9c-7-3.2-7.5-3.7-7.5-6.5c0-4.2,2.3-9.4,5.1-11.4c3.2-2.2,6.5-2,12.4,0.7
	c2.8,1.3,5.6,2.1,6.2,1.9c1.9-0.6,1.5-4.3-0.7-8C640.4,280.8,631.9,278.4,624.8,281.8 M455.8,292.4c-1.2,0.7-6.9,7.2-12.7,14.3
	c-12.9,16.1-22.2,25.2-30.6,30.3c-3.6,2.2-6.7,4.7-6.8,5.7c-0.5,2.7,3.8,6.5,9.4,8.1c3.7,1.1,6.4,2.8,9.5,6.1
	c6.5,6.8,13.8,12.4,16.1,12.4c1.1,0,3.5-1.5,5.4-3.4c3.9-3.9,4.3-6.9,1.9-13.6c-0.8-2.4-1.4-4.3-1.2-4.4c0.1-0.1,3.6-2.7,7.8-5.8
	c8.8-6.6,15.1-12.8,12.9-12.8c-0.8,0-8.2,2.2-16.4,4.9c-8.2,2.7-15.2,4.7-15.4,4.5c-1-1,8.2-12.8,16.9-21.4c9.6-9.6,17.7-15,25-16.5
	c4.8-1,18.3-5.5,19.3-6.5c0.9-0.8-8-1.7-26.8-2.6C461.1,291.3,457.4,291.4,455.8,292.4 M812.5,309.4c-3,0.5-12.2,2.8-20.5,5.1
	c-14.4,4-14.9,4.2-12,5.4c7.4,3.1,17.8,4.7,27.4,4.1c11.8-0.7,21.1-3.1,37.1-9.4l12.3-4.8l-5.4-0.7
	C843.5,308.1,818.9,308.3,812.5,309.4 M138.1,335.5c-0.8,1.2-3,6.1-4.9,10.8c-9,22-15.7,45.2-15.7,54.9c0,5.7,0.1,5.8,9.8,14.5
	c2.8,2.5,3.2,3.5,3.2,8c0,7.8-2.9,16.9-12.9,40.4c-9.7,22.9-14.1,34.8-14.1,38.2c0,2.9,6.8,10,23,24c16.4,14.2,16.2,14,20.4,22.6
	c1.9,3.8,4.8,8.3,6.6,9.9c1.8,1.7,4.1,4.8,5.2,7c1.1,2.2,5,7.1,8.5,10.9c9.3,9.9,13.7,17.2,17.8,30c4.3,13.2,5.9,16.1,12.5,22
	c11.4,10.3,26.6,12,42.7,5c6.9-3,21-12.3,26.6-17.4l4.4-4.1l6.3,1.6c9.6,2.5,24.2,8.1,35.3,13.7c5.5,2.7,10.1,5.1,10.2,5.2
	c0.1,0.1-2.6,5.8-6,12.6c-16.7,33.1-19.1,47.3-11.8,70.3c4.7,15.1,4.3,17.4-6.3,34.5c-15.8,25.6-20.6,41.7-20.6,69.1
	c0,20,4.2,36.1,16.6,63.5c8.6,19.2,40,74.3,47.8,84l2.1,2.5l42.8-0.3l42.8-0.3l-7.1-9c-15-19-28.4-31-57.2-51.4
	c-18.9-13.4-31-23.3-39.6-32.6c-12-12.9-23.8-33.8-26.6-47.2c-3-14-1.3-36.2,4.1-53.4c2.8-8.9,11.2-27.8,12.4-27.8
	c1.2,0,13,12.8,23.6,25.7c20,24.2,26.7,30.7,40.4,39.7c12.4,8.2,29.3,12.2,40.9,9.7c6.3-1.3,15.1-5,15.1-6.3
	c0-0.5-11.5-6.5-25.6-13.5c-27.6-13.5-34.7-17.7-46.6-27.3c-16-12.9-24.6-23.9-36.2-46.5c-8.9-17.3-11.8-26.6-12-38.2
	c-0.1-11,2.1-19.1,9.8-35c8.1-16.8,6.7-16.1,17.1-7.5c4.9,4,9,7.4,9.1,7.4c0.1,0-0.7,3.7-1.8,8.1c-2.5,10.5-2.7,25.2-0.4,32
	c2.6,7.5,7.4,14.2,15.6,22c14.1,13.4,26.6,20.2,51.1,28c8.1,2.6,15.8,5.5,17.2,6.6c1.4,1.1,5.4,8,9.1,15.4
	c3.6,7.4,6.9,13.5,7.4,13.5s0.6-6.2,0.4-13.8c-0.4-16.5-0.4-16.6,12.8-25c12.1-7.8,16.7-11.7,19.8-17c4.6-7.8,4-11.2-11.3-72.7
	c-7.6-30.5-15.5-56.8-17.4-58c-1.4-0.9-2.3,30.9-1.6,56.4c0.7,25.3-0.5,53.1-2.6,60.6c-1.5,5.3-7.4,10.8-14.4,13.4
	c-8.7,3.2-8.4,3.6-6.3-9.2c1.7-10.1,1.8-14.6,1.2-42.6c-0.4-20.4-1.1-32.8-1.9-35.6c-1.6-5.3-13.7-27-32.9-59
	c-8.2-13.8-16-27.5-17.3-30.7c-1.3-3.1-5.7-22.5-9.9-43c-7-34.3-13.7-63.4-15-64.7c-1.7-1.7-15.2,15.5-21.5,27.1
	c-7.6,14.1-11.6,27.9-17,57.7c-4.6,25.6-5.5,28.2-11.3,34.6c-10,11-67.1,57-76.3,61.5c-5.5,2.7-7.1,3.1-12.4,2.7
	c-3.9-0.3-7-1.1-8.8-2.4c-1.6-1.2-5.8-7.9-10.5-16.7c-6.9-13.3-17.3-29.7-26-41.4c-2.9-3.9-3-4.4-1.6-5.8c0.9-0.9,7.1-3.4,13.9-5.7
	s12.5-4.7,12.7-5.4c0.6-1.9-22.6-1.7-29.8,0.2c-8.3,2.2-8.7,2.1-11.9-4.2c-3.1-6.1-6.6-9.8-17.2-18.1c-9.1-7.1-18.4-17.3-19.9-21.7
	c-1.6-4.8-0.7-11.2,3.2-23.4c3.2-10,11.2-28.8,18.1-42.5c5.1-10.2,4.9-12.5-2.8-28.7c-5.5-11.6-5.9-12.8-5.7-19.3
	c0.1-4.2,1.7-14,4.1-24.5c5.3-23,7-31,6.6-31C139.7,333.2,138.9,334.2,138.1,335.5 M214,368.7c-10.4,2.8-19.1,6.2-28.9,11.3
	c-13.7,7.2-16.7,12.5-14.6,26.5c0.6,4.3,2.3,11.4,3.7,15.6c3.4,10.1,10.1,24.2,11.5,24.2c0.6,0,5.2-4.2,10.2-9.4
	c10.2-10.6,18.3-22.8,23.3-35.2c3.4-8.5,8.2-27.6,8.3-32.7C227.5,365.5,226.1,365.5,214,368.7 M652.7,377.1
	c-5.5,7.2-10.4,11.1-16.3,13c-2.1,0.7-3.9,2-4.1,3c-0.3,1,0.3,10.7,1.3,21.4c1,10.7,2.5,31.1,3.4,45.3s1.8,28.6,2.1,32l0.5,6.2
	l5.1-6.7c10.4-13.7,19.8-24.2,43-48c13.1-13.4,23.8-24.8,23.8-25.2c0-0.4-1-1-2.2-1.4c-3.8-1-17.9-10.2-24-15.6
	c-3.2-2.8-9.4-10.1-13.9-16.1s-9.3-11.8-10.8-12.9l-2.7-1.9L652.7,377.1 M758.5,397.2c-6.7,2-12.5,6.4-25.7,19.4
	c-28.9,28.3-69.5,75.5-75.9,88.2c-4.6,9.2-5.3,17.4-3,33.4c3.5,23.8,14.4,58.9,21,67.5c4.3,5.7,7.2,4.9,26.8-7.8l10.8-7l-6.8-7.1
	c-15.3-16.1-22.7-32.6-23.9-53.5c-0.9-14.9,3.3-26.9,15.8-45.2c16.8-24.6,48.5-55.8,76.5-75.2l7.3-5.1l-2.7-2.9
	c-1.5-1.6-4-3.5-5.4-4.3C770.4,396.1,762.7,395.9,758.5,397.2 M775,428.8c-31.9,24.5-51.5,41-51.5,43.4c0,0.4,3.7,1.5,8.2,2.5
	c7.6,1.6,8.6,2.1,13,6.6c10.4,10.7,11.2,27.9,2.2,43.6c-6.2,10.8-19.1,13.6-25.4,5.5c-4.3-5.5-1.7-9.3,7.1-10.1
	c6.3-0.6,6.5-0.7,8.4-4.6c2.4-4.8,3.2-15.9,1.6-20.7c-0.6-1.9-2.5-4.7-4.2-6.3c-2.9-2.7-3.5-2.9-11.4-2.9c-7.7,0-8.7,0.2-12.7,3
	c-5.1,3.6-9.8,10.2-12.9,18.2c-2.9,7.6-3.2,22-0.5,30.7c4,13.1,12.9,27.6,19.4,31.7c13.2,8.2,39.2-6.1,49.6-27.2
	c5.8-11.7,6.6-17.8,6.7-48l0.1-26.5l2.9,6.1c6.3,13,10.4,37.2,8.1,47.4l-1,4.5l3-3.5c5.6-6.5,14.9-21.2,19.3-30.4
	c5.4-11.2,7.7-19.8,7.7-29c0.1-5.8-0.5-8.2-3-13.8c-4.1-8.9-13.7-25.2-17-28.8l-2.7-2.9L775,428.8 M611.3,490.5
	c-5.1,9.8-16,26.5-23.8,36.1l-6.4,7.9l2.9,5.4c3.8,7,11.7,17.6,22.1,29.4c9.7,11.1,13.2,15.7,20.8,26.9c5.1,7.6,5.6,8.1,5.1,4.9
	c-0.3-1.9-4-28-8.1-58s-7.9-55.7-8.3-57.2C615,483.4,614.8,483.7,611.3,490.5 M142.3,511.4c-2.5,2-3.3,6.2-1.4,7.8
	c2.8,2.3,19.2-1.5,18.3-4.3C158.2,511.6,145.3,509,142.3,511.4 M753,585.6c-13.9,3.2-29.2,10.6-49.7,24.3
	c-11.9,7.9-18.7,13.8-19.4,16.8c-1.5,5.9,4.6,8.7,14.3,6.6c3-0.7,12.3-3.9,20.6-7.3c8.4-3.3,18.8-7.1,23.2-8.5
	c35.5-10.7,65.8,7,75.7,44.2c3.2,12,3.2,34.2,0,48.4c-6.1,27.3-20.1,55.5-43.9,88.7c-28,39.1-31.6,44.9-38.6,62.6
	c-5.9,15.1-9.1,30-9.1,43.2c0,8.6,0.3,11.9,1.8,15l1.8,4l1.6-3.5c20.2-43.7,27.5-54.6,59-88.1c24.6-26.2,33.1-37.8,44.2-60.4
	c15.8-32.3,22.9-63.1,21.6-93.4c-0.9-21.2-4.7-36.3-13.3-53.1c-10.3-20.2-25.3-32.2-47.4-38C784.8,584.3,762.2,583.5,753,585.6
	 M751.8,635.3c-3.4,0.4-17.8,4.2-32,8.4c-14.2,4.2-27.9,7.9-30.4,8.2c-5.8,0.7-12-1.9-18.1-7.5l-4.3-4l-6.5,10.5
	c-3.6,5.8-8,12.3-9.8,14.4c-4.5,5.2-7.9,5.2-19.4-0.2l-8.7-4.1l-3.8,2.8c-6.7,5-17.3,15.7-22.3,22.5c-25.6,34.5-26.2,86.6-1.5,121.5
	c10.5,14.7,25.7,24.7,47,30.9c8.4,2.4,27.9,6.6,30.9,6.6c1,0,0.4-2.4-2-8.9c-1.8-4.9-4.2-12.4-5.4-16.8c-2.1-8.4-5.5-29.2-4.8-29.9
	c0.2-0.2,3.1,5.1,6.5,11.8c7,14.1,18.3,31.4,25.4,39.3c5.2,5.7,12.1,9.7,20.9,12c6.5,1.7,8.9,1.8,8.9,0.3c0-2.4,8.9-19.8,13.8-27
	c2.8-4.1,10.2-14.3,16.5-22.7c40.4-54,57.4-98.3,50.2-130.5C796.9,646,777.7,631.9,751.8,635.3"/>
</svg>
